<?xml version="1.0" standalone="no"?>
<!DOCTYPE svg PUBLIC "-//W3C//DTD SVG 20010904//EN"
 "http://www.w3.org/TR/2001/REC-SVG-20010904/DTD/svg10.dtd">
<svg version="1.0" xmlns="http://www.w3.org/2000/svg"
 width="734.000000pt" height="734.000000pt" viewBox="0 0 734.000000 734.000000"
 preserveAspectRatio="xMidYMid meet">
<metadata>
Created by potrace 1.11, written by Peter Selinger 2001-2013
</metadata>
<g transform="translate(0.000000,734.000000) scale(0.100000,-0.100000)"
fill="#000000" stroke="none">
<path d="M1858 6944 c-746 -751 -862 -869 -860 -875 0 -3 -10 -12 -23 -19 -14
-7 -27 -21 -30 -30 -3 -9 -17 -23 -30 -30 -14 -7 -25 -16 -25 -20 0 -4 -39
-47 -87 -95 -49 -48 -87 -92 -85 -97 1 -4 -3 -7 -10 -6 -13 3 -41 -44 -30 -52
10 -7 9 -60 -1 -60 -4 0 -5 -6 -1 -12 9 -15 8 -153 -1 -168 -3 -5 -2 -10 2
-10 5 0 7 -35 6 -77 -4 -92 -3 -128 1 -166 2 -15 0 -30 -4 -32 -4 -3 -4 -21 0
-41 5 -20 6 -46 3 -58 -5 -22 -5 -60 1 -109 2 -15 0 -30 -4 -32 -4 -3 -4 -21
0 -41 5 -20 6 -46 3 -58 -5 -24 -4 -98 2 -105 2 -2 0 -12 -6 -22 -5 -11 -6
-19 -2 -19 4 0 7 -21 6 -47 -3 -68 -3 -113 0 -151 2 -18 0 -35 -5 -38 -4 -3
-5 -13 0 -22 4 -9 6 -30 5 -47 -3 -40 -4 -81 -1 -133 2 -23 -1 -42 -5 -42 -4
0 -4 -8 0 -17 10 -21 9 -65 -1 -82 -4 -6 -4 -11 1 -11 9 0 8 -134 -2 -149 -3
-6 -3 -11 2 -11 7 0 8 -40 3 -150 0 -14 -1 -55 -1 -92 0 -38 0 -74 0 -80 0 -7
1 -49 2 -93 1 -44 0 -84 -1 -90 -1 -5 -1 -12 0 -15 7 -18 5 -67 -3 -77 -5 -8
-6 -13 0 -13 10 0 8 -93 -2 -110 -3 -5 -3 -10 2 -10 4 0 8 -20 8 -45 0 -25 -4
-45 -8 -45 -4 0 -4 -8 1 -17 4 -10 7 -29 6 -43 -5 -43 -5 -124 -1 -153 3 -15
0 -30 -5 -33 -5 -4 -5 -10 1 -17 5 -7 7 -28 4 -47 -6 -46 -6 -50 0 -82 3 -16
2 -28 -3 -28 -5 0 -6 -10 -2 -22 9 -29 8 -70 -2 -86 -4 -6 -4 -12 1 -12 9 0
10 -117 0 -126 -3 -3 -3 -13 1 -22 8 -22 7 -65 -2 -80 -4 -7 -4 -12 1 -12 7 0
9 -95 3 -125 -1 -5 -1 -14 0 -20 5 -25 1 -555 -4 -564 -4 -5 -2 -13 4 -16 6
-4 8 -15 5 -26 -5 -14 53 -78 269 -294 152 -151 280 -275 286 -275 5 0 9 -3 7
-8 -3 -9 356 -367 366 -364 4 1 6 -1 5 -5 -3 -11 300 -313 313 -313 6 0 8 -3
6 -7 -2 -5 63 -73 144 -153 l147 -145 -2 2197 c0 1209 2 2198 5 2198 5 0 32
-38 64 -91 6 -9 29 -44 53 -78 23 -34 42 -67 42 -72 0 -5 4 -9 9 -9 5 0 16
-15 25 -34 8 -18 22 -39 31 -46 8 -7 15 -18 15 -25 0 -8 4 -15 8 -17 5 -1 25
-31 46 -65 28 -45 42 -60 54 -56 15 4 15 3 2 -6 -9 -7 -11 -14 -5 -18 6 -5 16
-20 24 -35 8 -15 21 -36 30 -46 9 -10 25 -33 35 -52 11 -19 25 -40 30 -47 30
-35 36 -43 30 -43 -3 0 -1 -7 6 -15 7 -8 17 -12 23 -8 6 4 7 1 3 -6 -5 -7 0
-21 10 -32 9 -10 14 -19 10 -19 -7 0 4 -14 37 -51 9 -10 14 -19 11 -19 -3 0
10 -23 30 -50 20 -28 36 -52 36 -55 0 -3 9 -15 20 -27 11 -12 20 -28 20 -35 0
-7 5 -13 10 -13 6 0 10 -6 10 -13 0 -7 9 -23 20 -35 11 -12 20 -26 20 -32 0
-5 5 -10 10 -10 6 0 10 -4 10 -9 0 -19 73 -120 83 -114 6 3 7 1 3 -5 -4 -7 12
-40 36 -74 24 -35 47 -71 53 -80 43 -73 82 -128 92 -128 7 0 10 -7 7 -15 -4
-8 1 -17 10 -21 9 -3 14 -10 11 -14 -3 -4 11 -28 30 -53 19 -25 35 -49 35 -52
0 -8 44 -69 53 -73 4 -2 7 -8 7 -13 0 -10 76 -126 97 -147 7 -7 13 -20 13 -27
0 -8 7 -18 16 -23 9 -5 16 -13 16 -18 0 -5 4 -8 10 -6 5 1 7 -1 4 -6 -5 -9 39
-81 57 -93 5 -3 7 -8 6 -10 -2 -2 11 -25 29 -51 18 -26 32 -51 32 -57 0 -6 5
-11 10 -11 6 0 10 -7 10 -15 0 -8 4 -15 9 -15 4 0 19 -20 32 -45 13 -25 27
-45 31 -45 5 0 8 -7 8 -15 0 -8 5 -15 10 -15 6 0 10 -7 10 -15 0 -8 5 -15 10
-15 6 0 10 -4 10 -9 0 -9 77 -130 89 -141 3 -3 12 -17 20 -32 8 -15 22 -37 33
-47 10 -11 18 -22 18 -25 0 -10 122 -191 133 -198 7 -4 9 -8 4 -8 -4 0 9 -22
28 -50 19 -27 35 -54 35 -59 0 -6 8 -16 19 -23 10 -7 20 -17 21 -23 6 -23 24
-55 30 -55 4 0 13 -14 20 -30 7 -16 16 -30 21 -30 5 0 9 -7 9 -15 0 -8 5 -15
10 -15 6 0 10 -7 10 -15 0 -8 5 -15 10 -15 6 0 10 -6 10 -13 0 -7 9 -23 20
-35 11 -12 20 -24 20 -27 0 -16 68 -104 75 -97 5 4 5 2 2 -4 -3 -6 18 -48 48
-93 30 -45 55 -86 55 -91 0 -4 4 -10 8 -12 11 -4 72 -97 72 -109 0 -5 5 -9 10
-9 6 0 10 -7 10 -15 0 -8 5 -15 10 -15 6 0 10 -6 10 -13 0 -8 9 -22 20 -32 11
-10 20 -24 20 -32 0 -7 7 -16 15 -19 8 -4 12 -10 9 -15 -3 -5 -2 -9 3 -9 4 0
14 -13 21 -28 6 -16 21 -38 32 -50 11 -12 20 -23 20 -26 0 -15 183 -281 192
-278 5 1 7 -2 4 -7 -4 -5 15 -42 41 -81 l47 -71 774 778 773 778 -5 2079 -5
2078 -370 372 c-203 204 -554 557 -780 784 -225 226 -412 412 -416 412 -3 0
-3 -656 0 -1457 14 -2938 14 -2942 -1 -2936 -8 3 -12 9 -9 13 3 4 -2 13 -10
20 -8 7 -15 18 -15 25 0 8 -3 15 -7 17 -10 4 -53 65 -53 73 0 4 -6 12 -12 20
-7 7 -28 38 -47 69 -18 31 -38 56 -43 56 -5 0 -6 5 -3 10 3 6 2 10 -3 10 -5 0
-12 8 -15 18 -3 9 -47 78 -97 152 -50 74 -94 143 -97 153 -3 9 -9 17 -14 17
-5 0 -9 5 -9 11 0 6 -13 28 -30 49 -16 21 -30 41 -30 44 0 7 -38 63 -57 83 -6
7 -15 22 -18 33 -3 11 -10 20 -14 20 -5 0 -14 14 -21 30 -7 17 -16 30 -21 30
-5 0 -9 7 -9 15 0 8 -4 15 -10 15 -5 0 -10 5 -10 11 0 7 -15 32 -33 58 -18 25
-36 54 -40 64 -3 9 -11 17 -17 17 -6 0 -9 4 -6 9 3 5 -1 14 -9 21 -8 7 -15 17
-15 22 0 5 -9 18 -20 30 -11 12 -26 34 -32 50 -7 15 -16 28 -20 28 -5 0 -8 5
-8 10 0 6 -5 16 -11 23 -5 7 -38 55 -72 107 -34 52 -65 97 -69 98 -5 2 -8 10
-8 17 0 8 -7 18 -16 23 -9 5 -14 11 -12 14 3 4 -73 126 -95 153 -4 6 -27 39
-50 75 -23 36 -67 104 -97 150 -30 47 -58 87 -62 88 -4 2 -8 10 -8 18 0 8 -4
14 -10 14 -5 0 -10 6 -10 13 0 7 -7 22 -15 32 -30 38 -125 187 -125 196 0 5
-7 9 -17 9 -9 0 -13 3 -10 6 4 4 -2 19 -13 34 -11 16 -20 31 -20 34 0 8 -38
63 -57 84 -7 7 -13 19 -13 27 0 7 -7 15 -15 19 -8 3 -15 12 -15 21 0 8 -4 15
-10 15 -5 0 -10 5 -10 10 0 15 -91 150 -101 150 -5 0 -8 4 -7 8 2 4 -31 59
-72 122 -41 63 -77 120 -80 125 -14 28 -145 220 -152 223 -4 2 -8 10 -8 18 0
8 -4 14 -10 14 -5 0 -10 7 -10 15 0 8 -5 15 -12 15 -6 0 -9 3 -5 6 3 4 1 12
-6 19 -7 7 -24 34 -40 59 -17 29 -32 44 -39 40 -6 -4 -8 -3 -4 4 8 13 -51 112
-67 112 -5 0 -8 3 -4 6 3 4 -8 27 -26 53 -18 25 -37 55 -43 66 -6 11 -16 19
-23 17 -7 -1 -10 2 -7 7 7 10 -25 71 -36 71 -5 0 -8 6 -8 13 0 7 -8 22 -17 33
-10 10 -24 31 -32 46 -8 15 -22 37 -33 47 -10 11 -18 25 -18 31 0 5 -5 10 -12
10 -6 0 -9 3 -5 6 3 4 1 12 -6 20 -26 29 -38 44 -40 51 -1 5 -6 7 -10 5 -5 -1
-6 1 -3 6 6 10 -96 171 -117 184 -6 4 -8 8 -3 8 4 0 -3 15 -18 34 -14 19 -26
37 -26 41 0 3 -16 28 -35 56 -19 28 -35 55 -35 60 0 5 -4 9 -10 9 -5 0 -173
-165 -372 -366z m562 -358 c0 -2 -8 -10 -17 -17 -16 -13 -17 -12 -4 4 13 16
21 21 21 13z m-19 -93 c13 -16 12 -17 -3 -4 -10 7 -18 15 -18 17 0 8 8 3 21
-13z m7 -78 c-3 -3 -9 2 -12 12 -6 14 -5 15 5 6 7 -7 10 -15 7 -18z m317 -3
c-3 -3 -11 0 -18 7 -9 10 -8 11 6 5 10 -3 15 -9 12 -12z m-395 -56 c0 -2 -8
-10 -17 -17 -16 -13 -17 -12 -4 4 13 16 21 21 21 13z m320 -96 c0 -5 -5 -10
-11 -10 -5 0 -7 5 -4 10 3 6 8 10 11 10 2 0 4 -4 4 -10z m-86 -46 c3 -8 2 -12
-4 -9 -6 3 -10 10 -10 16 0 14 7 11 14 -7z m-39 -34 c3 -5 1 -10 -4 -10 -6 0
-11 5 -11 10 0 6 2 10 4 10 3 0 8 -4 11 -10z m89 -38 c3 -5 -1 -9 -9 -9 -8 0
-12 4 -9 9 3 4 7 8 9 8 2 0 6 -4 9 -8z m153 -37 c0 -8 -4 -12 -9 -9 -5 3 -6
10 -3 15 9 13 12 11 12 -6z m-156 -42 c13 -16 12 -17 -3 -4 -10 7 -18 15 -18
17 0 8 8 3 21 -13z m324 -3 c-3 -5 -12 -10 -18 -10 -7 0 -6 4 3 10 19 12 23
12 15 0z m-645 -34 c0 -3 -4 -8 -10 -11 -5 -3 -10 -1 -10 4 0 6 5 11 10 11 6
0 10 -2 10 -4z m477 -11 c0 -8 -4 -12 -9 -9 -5 3 -6 10 -3 15 9 13 12 11 12
-6z m-147 -31 c0 -8 -19 -13 -24 -6 -3 5 1 9 9 9 8 0 15 -2 15 -3z m-135 -33
c3 -5 2 -12 -3 -15 -5 -3 -9 1 -9 9 0 17 3 19 12 6z m-1480 -10 c3 -5 2 -12
-3 -15 -5 -3 -9 1 -9 9 0 17 3 19 12 6z m1445 -77 c0 -8 -19 -13 -24 -6 -3 5
1 9 9 9 8 0 15 -2 15 -3z m355 -3 c3 -5 2 -12 -3 -15 -5 -3 -9 1 -9 9 0 17 3
19 12 6z m-358 -76 c0 -8 -4 -12 -9 -9 -5 3 -6 10 -3 15 9 13 12 11 12 -6z
m158 -4 c3 -5 2 -12 -3 -15 -5 -3 -9 1 -9 9 0 17 3 19 12 6z m400 -1 c3 -5 1
-10 -4 -10 -6 0 -11 5 -11 10 0 6 2 10 4 10 3 0 8 -4 11 -10z m-2240 -69 c3
-5 2 -12 -3 -15 -5 -3 -9 1 -9 9 0 17 3 19 12 6z m79 -9 c3 -5 -1 -9 -9 -9 -8
0 -12 4 -9 9 3 4 7 8 9 8 2 0 6 -4 9 -8z m1521 -1 c3 -5 2 -12 -3 -15 -5 -3
-9 1 -9 9 0 17 3 19 12 6z m-1275 -37 c0 -8 -19 -13 -24 -6 -3 5 1 9 9 9 8 0
15 -2 15 -3z m1995 -33 c3 -5 2 -12 -3 -15 -5 -3 -9 1 -9 9 0 17 3 19 12 6z
m82 -6 c0 -8 -4 -12 -9 -9 -5 3 -6 10 -3 15 9 13 12 11 12 -6z m-1913 -3 c3
-5 -1 -9 -9 -9 -8 0 -12 4 -9 9 3 4 7 8 9 8 2 0 6 -4 9 -8z m1120 0 c3 -5 -1
-9 -9 -9 -8 0 -12 4 -9 9 3 4 7 8 9 8 2 0 6 -4 9 -8z m396 -2 c0 -5 -5 -10
-11 -10 -5 0 -7 5 -4 10 3 6 8 10 11 10 2 0 4 -4 4 -10z m-1686 -78 c3 -5 -1
-9 -9 -9 -8 0 -12 4 -9 9 3 4 7 8 9 8 2 0 6 -4 9 -8z m1856 2 c0 -8 -19 -13
-24 -6 -3 5 1 9 9 9 8 0 15 -2 15 -3z m-233 -119 c0 -8 -4 -12 -9 -9 -5 3 -6
10 -3 15 9 13 12 11 12 -6z m120 0 c0 -8 -4 -12 -9 -9 -5 3 -6 10 -3 15 9 13
12 11 12 -6z m-1406 -18 c-10 -9 -11 -8 -5 6 3 10 9 15 12 12 3 -3 0 -11 -7
-18z m64 -67 c3 -5 1 -10 -4 -10 -6 0 -11 5 -11 10 0 6 2 10 4 10 3 0 8 -4 11
-10z m60 -88 c-3 -3 -11 0 -18 7 -9 10 -8 11 6 5 10 -3 15 -9 12 -12z m-815
-226 c0 -3 -4 -8 -10 -11 -5 -3 -10 -1 -10 4 0 6 5 11 10 11 6 0 10 -2 10 -4z
m1040 -170 c0 -2 -8 -10 -17 -17 -16 -13 -17 -12 -4 4 13 16 21 21 21 13z
m1734 -86 c-6 -6 -10 -3 -10 10 0 13 4 16 10 10 7 -7 7 -13 0 -20z m-123 3
c13 -16 12 -17 -3 -4 -17 13 -22 21 -14 21 2 0 10 -8 17 -17z m-966 -52 c-9
-8 -36 -10 -30 -2 2 4 11 8 20 8 8 0 13 -3 10 -6z m440 -20 c-9 -8 -36 -10
-30 -2 2 4 11 8 20 8 8 0 13 -3 10 -6z m961 -3 c3 -4 -1 -5 -10 -4 -8 1 -18 5
-22 8 -3 4 1 5 10 4 8 -1 18 -5 22 -8z m-926 -52 c0 -2 -7 -7 -16 -10 -8 -3
-12 -2 -9 4 6 10 25 14 25 6z m-2065 -15 c3 -5 2 -12 -3 -15 -5 -3 -9 1 -9 9
0 17 3 19 12 6z m638 -6 c-3 -9 -8 -14 -10 -11 -3 3 -2 9 2 15 9 16 15 13 8
-4z m2160 0 c-3 -9 -8 -14 -10 -11 -3 3 -2 9 2 15 9 16 15 13 8 -4z m-2556
-10 c0 -8 -4 -12 -9 -9 -5 3 -6 10 -3 15 9 13 12 11 12 -6z m638 6 c3 -5 2
-12 -3 -15 -5 -3 -9 1 -9 9 0 17 3 19 12 6z m-449 -83 c3 -4 -1 -5 -10 -4 -8
1 -18 5 -22 8 -3 4 1 5 10 4 8 -1 18 -5 22 -8z m2190 -113 c-1 -8 -5 -17 -8
-21 -5 -4 -4 16 1 34 3 9 9 -1 7 -13z m250 -27 c3 -4 -1 -5 -10 -4 -8 1 -18 5
-22 8 -3 4 1 5 10 4 8 -1 18 -5 22 -8z m-2840 -20 c3 -4 -1 -5 -10 -4 -8 1
-18 5 -22 8 -3 4 1 5 10 4 8 -1 18 -5 22 -8z m-46 -58 c0 -5 -2 -10 -4 -10 -3
0 -8 5 -11 10 -3 6 -1 10 4 10 6 0 11 -4 11 -10z m3253 -15 c-3 -9 -8 -14 -10
-11 -3 3 -2 9 2 15 9 16 15 13 8 -4z m-1282 -18 c-10 -9 -11 -8 -5 6 3 10 9
15 12 12 3 -3 0 -11 -7 -18z m754 -7 c-3 -5 -12 -10 -18 -10 -7 0 -6 4 3 10
19 12 23 12 15 0z m-569 -106 c1 -9 0 -13 -4 -10 -3 4 -7 14 -8 22 -1 9 0 13
4 10 3 -4 7 -14 8 -22z m59 -23 c3 -5 2 -12 -3 -15 -5 -3 -9 1 -9 9 0 17 3 19
12 6z m-1950 -11 c-3 -5 -12 -10 -18 -10 -7 0 -6 4 3 10 19 12 23 12 15 0z
m910 1 c3 -5 2 -12 -3 -15 -5 -3 -9 1 -9 9 0 17 3 19 12 6z m855 5 c0 -2 -8
-10 -17 -17 -16 -13 -17 -12 -4 4 13 16 21 21 21 13z m400 0 c0 -2 -8 -10 -17
-17 -16 -13 -17 -12 -4 4 13 16 21 21 21 13z m127 -91 c0 -8 -4 -12 -9 -9 -5
3 -6 10 -3 15 9 13 12 11 12 -6z m-1503 -85 c-6 -6 -10 -3 -10 10 0 13 4 16
10 10 7 -7 7 -13 0 -20z m2166 16 c0 -2 -7 -7 -16 -10 -8 -3 -12 -2 -9 4 6 10
25 14 25 6z m-1810 -40 c0 -2 -8 -10 -17 -17 -16 -13 -17 -12 -4 4 13 16 21
21 21 13z m-105 -126 c-3 -5 -12 -10 -18 -10 -7 0 -6 4 3 10 19 12 23 12 15 0z
m835 0 c0 -5 -2 -10 -4 -10 -3 0 -8 5 -11 10 -3 6 -1 10 4 10 6 0 11 -4 11
-10z m800 -144 c0 -2 -8 -10 -17 -17 -16 -13 -17 -12 -4 4 13 16 21 21 21 13z
m416 -51 c-1 -8 -5 -17 -8 -21 -5 -4 -4 16 1 34 3 9 9 -1 7 -13z m-3203 -20
c-3 -9 -8 -14 -10 -11 -3 3 -2 9 2 15 9 16 15 13 8 -4z m2887 -5 c0 -5 -5 -10
-11 -10 -5 0 -7 5 -4 10 3 6 8 10 11 10 2 0 4 -4 4 -10z m-2900 -94 c0 -2 -7
-7 -16 -10 -8 -3 -12 -2 -9 4 6 10 25 14 25 6z m651 -113 c13 -16 12 -17 -3
-4 -17 13 -22 21 -14 21 2 0 10 -8 17 -17z m-811 -53 c0 -5 -5 -10 -11 -10 -5
0 -7 5 -4 10 3 6 8 10 11 10 2 0 4 -4 4 -10z m2880 0 c0 -5 -2 -10 -4 -10 -3
0 -8 5 -11 10 -3 6 -1 10 4 10 6 0 11 -4 11 -10z m-2320 -159 c0 -6 -4 -12 -8
-15 -5 -3 -9 1 -9 9 0 8 4 15 9 15 4 0 8 -4 8 -9z m2415 -550 c3 -5 2 -12 -3
-15 -5 -3 -9 1 -9 9 0 17 3 19 12 6z m1310 -90 c-9 -8 -36 -10 -30 -2 2 4 11
8 20 8 8 0 13 -3 10 -6z m-1148 -76 c0 -8 -4 -12 -9 -9 -5 3 -6 10 -3 15 9 13
12 11 12 -6z m333 -1 c0 -8 -19 -13 -24 -6 -3 5 1 9 9 9 8 0 15 -2 15 -3z m-6
-162 c3 -5 -1 -9 -9 -9 -8 0 -12 4 -9 9 3 4 7 8 9 8 2 0 6 -4 9 -8z m-300 -80
c3 -5 -1 -9 -9 -9 -8 0 -12 4 -9 9 3 4 7 8 9 8 2 0 6 -4 9 -8z m-2740 -80 c3
-5 -1 -9 -9 -9 -8 0 -12 4 -9 9 3 4 7 8 9 8 2 0 6 -4 9 -8z m480 0 c3 -5 -1
-9 -9 -9 -8 0 -12 4 -9 9 3 4 7 8 9 8 2 0 6 -4 9 -8z m2716 2 c0 -8 -19 -13
-24 -6 -3 5 1 9 9 9 8 0 15 -2 15 -3z m164 -2 c3 -5 -1 -9 -9 -9 -8 0 -12 4
-9 9 3 4 7 8 9 8 2 0 6 -4 9 -8z m71 -101 c3 -5 2 -12 -3 -15 -5 -3 -9 1 -9 9
0 17 3 19 12 6z m-2560 -80 c3 -5 2 -12 -3 -15 -5 -3 -9 1 -9 9 0 17 3 19 12
6z m-1040 -140 c3 -5 2 -12 -3 -15 -5 -3 -9 1 -9 9 0 17 3 19 12 6z m495 3 c0
-8 -19 -13 -24 -6 -3 5 1 9 9 9 8 0 15 -2 15 -3z m467 -9 c0 -8 -4 -12 -9 -9
-5 3 -6 10 -3 15 9 13 12 11 12 -6z m2813 -229 c0 -2 -8 -10 -17 -17 -16 -13
-17 -12 -4 4 13 16 21 21 21 13z m160 -320 c0 -2 -8 -10 -17 -17 -16 -13 -17
-12 -4 4 13 16 21 21 21 13z"/>
</g>
</svg>
